<svg width="900" height="322" viewBox="0 0 900 322" fill="none" xmlns="http://www.w3.org/2000/svg">
<g clip-path="url(#clip0_1_2)">
<mask id="mask0_1_2" style="mask-type:luminance" maskUnits="userSpaceOnUse" x="0" y="0" width="900" height="322">
<path d="M900 0H0V322H900V0Z" fill="white"/>
</mask>
<g mask="url(#mask0_1_2)">
<path d="M875 0H25C11.1929 0 0 11.1929 0 25V297C0 310.807 11.1929 322 25 322H875C888.807 322 900 310.807 900 297V25C900 11.1929 888.807 0 875 0Z" fill="url(#paint0_linear_1_2)"/>
<g filter="url(#filter0_d_1_2)">
<path d="M165 255C167.218 272.687 184.449 280 203.215 280C225.393 280 240.576 270.306 240.576 251.599C240.576 240.204 233.241 230.85 218.228 227.619L197.926 223.197C191.273 221.667 190.249 218.776 190.249 216.054C190.249 212.143 192.808 207.721 201.85 207.721C211.233 207.721 217.204 212.653 218.057 219.456L239.553 215.204C236.653 200.408 222.663 190.034 202.532 190.034C181.037 190.034 167.73 201.769 167.73 218.095C167.73 230.34 176.43 239.014 191.784 242.245L209.186 245.816C216.522 247.347 218.569 250.408 218.569 253.469C218.569 258.231 213.621 261.973 205.262 261.973C196.391 261.973 188.884 259.082 187.69 250.408L165 255ZM307.27 190.034C296.01 190.034 287.139 193.605 280.485 200.238V155H257.966V277.449H280.485V239.864C280.485 219.116 288.845 210.612 301.64 210.612C312.046 210.612 318.87 218.605 318.87 230.51V277.449H341.39V225.748C341.39 204.66 327.742 190.034 307.27 190.034ZM443.612 233.401C442.759 207.551 423.14 190.034 400.45 190.034C376.054 190.034 356.435 208.401 356.435 235.102C356.435 261.803 376.054 280 400.109 280C418.705 280 433.888 271.497 441.395 253.81L421.264 249.558C415.122 259.932 406.762 260.782 400.109 260.782C389.702 260.782 381.002 253.299 378.784 241.054H443.612V233.401ZM400.45 209.592C409.492 209.592 417.681 214.354 420.581 225.238H379.466C382.196 214.694 391.92 209.592 400.45 209.592ZM483.241 277.449V155H460.721V277.449H483.241ZM562.649 255C558.213 257.381 552.413 259.082 548.489 259.082C540.982 259.082 536.035 254.66 536.035 244.456V210.952H563.843V192.585H536.035V166.905H513.516V192.585H495.261V210.952H513.516V246.156C513.516 269.456 526.822 280 546.953 280C554.119 280 560.26 278.469 569.132 273.707L562.649 255ZM659.863 233.401C659.01 207.551 639.391 190.034 616.701 190.034C592.305 190.034 572.686 208.401 572.686 235.102C572.686 261.803 592.305 280 616.36 280C634.955 280 650.139 271.497 657.645 253.81L637.514 249.558C631.372 259.932 623.013 260.782 616.36 260.782C605.953 260.782 597.252 253.299 595.034 241.054H659.863V233.401ZM616.701 209.592C625.743 209.592 633.931 214.354 636.832 225.238H595.717C598.446 214.694 608.171 209.592 616.701 209.592ZM730.029 191.395C716.21 191.395 706.315 198.197 699.491 208.061V192.585H676.972V277.449H699.491V250.068C699.491 226.429 709.045 213.673 729.858 213.673H734.806L736 192.075C733.953 191.395 732.247 191.395 730.029 191.395Z" fill="#CCFFED"/>
<path d="M282.273 69.8182L272.636 72.5455C272.03 70.9394 271.136 69.3788 269.955 67.8636C268.803 66.3182 267.227 65.0455 265.227 64.0455C263.227 63.0455 260.667 62.5455 257.545 62.5455C253.273 62.5455 249.712 63.5303 246.864 65.5C244.045 67.4394 242.636 69.9091 242.636 72.9091C242.636 75.5758 243.606 77.6818 245.545 79.2273C247.485 80.7727 250.515 82.0606 254.636 83.0909L265 85.6364C271.242 87.1515 275.894 89.4697 278.955 92.5909C282.015 95.6818 283.545 99.6667 283.545 104.545C283.545 108.545 282.394 112.121 280.091 115.273C277.818 118.424 274.636 120.909 270.545 122.727C266.455 124.545 261.697 125.455 256.273 125.455C249.152 125.455 243.258 123.909 238.591 120.818C233.924 117.727 230.97 113.212 229.727 107.273L239.909 104.727C240.879 108.485 242.712 111.303 245.409 113.182C248.136 115.061 251.697 116 256.091 116C261.091 116 265.061 114.939 268 112.818C270.97 110.667 272.455 108.091 272.455 105.091C272.455 102.667 271.606 100.636 269.909 99C268.212 97.3333 265.606 96.0909 262.091 95.2727L250.455 92.5455C244.061 91.0303 239.364 88.6818 236.364 85.5C233.394 82.2879 231.909 78.2727 231.909 73.4545C231.909 69.5151 233.015 66.0303 235.227 63C237.47 59.9697 240.515 57.5909 244.364 55.8636C248.242 54.1364 252.636 53.2727 257.545 53.2727C264.455 53.2727 269.879 54.7879 273.818 57.8182C277.788 60.8485 280.606 64.8485 282.273 69.8182ZM328.966 125.455C322.239 125.455 316.436 123.97 311.557 121C306.708 118 302.966 113.818 300.33 108.455C297.723 103.061 296.42 96.7879 296.42 89.6364C296.42 82.4848 297.723 76.1818 300.33 70.7273C302.966 65.2424 306.633 60.9697 311.33 57.9091C316.057 54.8182 321.572 53.2727 327.875 53.2727C331.511 53.2727 335.102 53.8788 338.648 55.0909C342.193 56.303 345.42 58.2727 348.33 61C351.239 63.697 353.557 67.2727 355.284 71.7273C357.011 76.1818 357.875 81.6667 357.875 88.1818V92.7273H304.057V83.4545H346.966C346.966 79.5151 346.178 76 344.602 72.9091C343.057 69.8182 340.845 67.3788 337.966 65.5909C335.117 63.803 331.754 62.9091 327.875 62.9091C323.602 62.9091 319.905 63.9697 316.784 66.0909C313.693 68.1818 311.314 70.9091 309.648 74.2727C307.981 77.6364 307.148 81.2424 307.148 85.0909V91.2727C307.148 96.5455 308.057 101.015 309.875 104.682C311.723 108.318 314.284 111.091 317.557 113C320.83 114.879 324.633 115.818 328.966 115.818C331.784 115.818 334.33 115.424 336.602 114.636C338.905 113.818 340.89 112.606 342.557 111C344.223 109.364 345.511 107.333 346.42 104.909L356.784 107.818C355.693 111.333 353.86 114.424 351.284 117.091C348.708 119.727 345.527 121.788 341.739 123.273C337.951 124.727 333.693 125.455 328.966 125.455ZM384.92 82V124H374.193V54.1818H384.557V65.0909H385.466C387.102 61.5455 389.587 58.697 392.92 56.5455C396.254 54.3636 400.557 53.2727 405.83 53.2727C410.557 53.2727 414.693 54.2424 418.239 56.1818C421.784 58.0909 424.542 61 426.511 64.9091C428.481 68.7879 429.466 73.697 429.466 79.6364V124H418.739V80.3636C418.739 74.8788 417.314 70.6061 414.466 67.5455C411.617 64.4545 407.708 62.9091 402.739 62.9091C399.314 62.9091 396.254 63.6515 393.557 65.1364C390.89 66.6212 388.784 68.7879 387.239 71.6364C385.693 74.4848 384.92 77.9394 384.92 82ZM475.432 125.455C469.614 125.455 464.477 123.985 460.023 121.045C455.568 118.076 452.083 113.894 449.568 108.5C447.053 103.076 445.795 96.6667 445.795 89.2727C445.795 81.9394 447.053 75.5758 449.568 70.1818C452.083 64.7879 455.583 60.6212 460.068 57.6818C464.553 54.7424 469.735 53.2727 475.614 53.2727C480.159 53.2727 483.75 54.0303 486.386 55.5455C489.053 57.0303 491.083 58.7273 492.477 60.6364C493.902 62.5151 495.008 64.0606 495.795 65.2727H496.705V30.9091H507.432V124H497.068V113.273H495.795C495.008 114.545 493.886 116.152 492.432 118.091C490.977 120 488.902 121.712 486.205 123.227C483.508 124.712 479.917 125.455 475.432 125.455ZM476.886 115.818C481.189 115.818 484.826 114.697 487.795 112.455C490.765 110.182 493.023 107.045 494.568 103.045C496.114 99.0152 496.886 94.3636 496.886 89.0909C496.886 83.8788 496.129 79.3182 494.614 75.4091C493.098 71.4697 490.856 68.4091 487.886 66.2273C484.917 64.0151 481.25 62.9091 476.886 62.9091C472.341 62.9091 468.553 64.0758 465.523 66.4091C462.523 68.7121 460.265 71.8485 458.75 75.8182C457.265 79.7576 456.523 84.1818 456.523 89.0909C456.523 94.0606 457.28 98.5758 458.795 102.636C460.341 106.667 462.614 109.879 465.614 112.273C468.644 114.636 472.402 115.818 476.886 115.818ZM594.932 54.1818V63.2727H558.75V54.1818H594.932ZM569.295 37.4545H580.023V104C580.023 107.03 580.462 109.303 581.341 110.818C582.25 112.303 583.402 113.303 584.795 113.818C586.22 114.303 587.72 114.545 589.295 114.545C590.477 114.545 591.447 114.485 592.205 114.364C592.962 114.212 593.568 114.091 594.023 114L596.205 123.636C595.477 123.909 594.462 124.182 593.159 124.455C591.856 124.758 590.205 124.909 588.205 124.909C585.174 124.909 582.205 124.258 579.295 122.955C576.417 121.652 574.023 119.667 572.114 117C570.235 114.333 569.295 110.97 569.295 106.909V37.4545ZM638.682 125.455C632.379 125.455 626.848 123.955 622.091 120.955C617.364 117.955 613.667 113.758 611 108.364C608.364 102.97 607.045 96.6667 607.045 89.4545C607.045 82.1818 608.364 75.8333 611 70.4091C613.667 64.9848 617.364 60.7727 622.091 57.7727C626.848 54.7727 632.379 53.2727 638.682 53.2727C644.985 53.2727 650.5 54.7727 655.227 57.7727C659.985 60.7727 663.682 64.9848 666.318 70.4091C668.985 75.8333 670.318 82.1818 670.318 89.4545C670.318 96.6667 668.985 102.97 666.318 108.364C663.682 113.758 659.985 117.955 655.227 120.955C650.5 123.955 644.985 125.455 638.682 125.455ZM638.682 115.818C643.47 115.818 647.409 114.591 650.5 112.136C653.591 109.682 655.879 106.455 657.364 102.455C658.848 98.4545 659.591 94.1212 659.591 89.4545C659.591 84.7879 658.848 80.4394 657.364 76.4091C655.879 72.3788 653.591 69.1212 650.5 66.6364C647.409 64.1515 643.47 62.9091 638.682 62.9091C633.894 62.9091 629.955 64.1515 626.864 66.6364C623.773 69.1212 621.485 72.3788 620 76.4091C618.515 80.4394 617.773 84.7879 617.773 89.4545C617.773 94.1212 618.515 98.4545 620 102.455C621.485 106.455 623.773 109.682 626.864 112.136C629.955 114.591 633.894 115.818 638.682 115.818Z" fill="#CCFFED"/>
</g>
</g>
</g>
<defs>
<filter id="filter0_d_1_2" x="165" y="30.9091" width="571" height="254.091" filterUnits="userSpaceOnUse" color-interpolation-filters="sRGB">
<feFlood flood-opacity="0" result="BackgroundImageFix"/>
<feColorMatrix in="SourceAlpha" type="matrix" values="0 0 0 0 0 0 0 0 0 0 0 0 0 0 0 0 0 0 127 0" result="hardAlpha"/>
<feOffset dy="5"/>
<feComposite in2="hardAlpha" operator="out"/>
<feColorMatrix type="matrix" values="0 0 0 0 0 0 0 0 0 0 0 0 0 0 0 0 0 0 0.25 0"/>
<feBlend mode="normal" in2="BackgroundImageFix" result="effect1_dropShadow_1_2"/>
<feBlend mode="normal" in="SourceGraphic" in2="effect1_dropShadow_1_2" result="shape"/>
</filter>
<linearGradient id="paint0_linear_1_2" x1="450" y1="0" x2="450" y2="1105" gradientUnits="userSpaceOnUse">
<stop stop-color="#2A3B4B"/>
<stop offset="1" stop-color="#2BFAAC"/>
</linearGradient>
<clipPath id="clip0_1_2">
<rect width="900" height="322" fill="white"/>
</clipPath>
</defs>
</svg>
